<svg xmlns="http://www.w3.org/2000/svg" xmlns:xlink="http://www.w3.org/1999/xlink" version="1.1" x="0px" y="0px" viewBox="0 0 48 60" style="enable-background:new 0 0 48 48;" xml:space="preserve"><g style="" display="none"><path style="" d="M24,3c-6.07,0-11,4.93-11,11s4.93,11,11,11s11-4.93,11-11S30.07,3,24,3z M24,23   c-4.96,0-9-4.04-9-9c0-4.96,4.04-9,9-9s9,4.04,9,9C33,18.96,28.96,23,24,23z" display="inline"/><path style="" d="M34,29H14c-4.96,0-9,4.04-9,9v7h38v-7C43,33.04,38.96,29,34,29z M41,43H7v-5   c0-3.86,3.14-7,7-7h20c3.86,0,7,3.14,7,7V43z" display="inline"/></g><g style="" display="none"><path style="" d="M45,45H3V19.52l21-16.8l21,16.8V45z M5,43h38V20.48l-19-15.2L5,20.48V43z" display="inline"/></g><g style="" display="none"><g style="" display="inline"><path d="M31.62,32.38C34.93,29.29,37,24.88,37,20c0-9.37-7.63-17-17-17S3,10.63,3,20s7.63,17,17,17    c3.77,0,7.26-1.24,10.08-3.33l9.15,10.97l1.54-1.28L31.62,32.38z M5,20c0-8.27,6.73-15,15-15s15,6.73,15,15c0,8.27-6.73,15-15,15    S5,28.27,5,20z"/></g></g><g style="" display="none"><path style="" d="M39,31h-2V16c0-7.17-5.83-13-13-13S11,8.83,11,16v15H9c-2.21,0-4,1.79-4,4   c0,2.21,1.79,4,4,4h8.08c0.48,3.39,3.4,6,6.92,6s6.44-2.61,6.92-6H39c2.21,0,4-1.79,4-4C43,32.79,41.21,31,39,31z M13,16   c0-6.07,4.93-11,11-11s11,4.93,11,11v15H13V16z M24,43c-2.42,0-4.44-1.72-4.9-4h9.8C28.44,41.28,26.42,43,24,43z M39,37H9   c-1.1,0-2-0.9-2-2c0-1.1,0.9-2,2-2h30c1.1,0,2,0.9,2,2C41,36.1,40.1,37,39,37z" display="inline"/></g><g style="" display="none"><path style="" d="M28.837,44.96L24,24L3.04,19.163L44.96,3.04L28.837,44.96z M9.858,18.684   l15.81,3.648l3.647,15.81L41.477,6.522L9.858,18.684z" display="inline"/></g><g style="" display="none"><path style="" d="M30.371,4.901L9.674,25.598L4.901,43.099l17.501-4.773l20.697-20.697   L30.371,4.901z M30.371,7.729l9.899,9.899l-4.243,4.243l-9.899-9.899L30.371,7.729z M21.37,36.53L7.758,40.242L11.47,26.63   l13.244-13.244l9.899,9.899L21.37,36.53z" display="inline"/></g><g style="" display="none"><path style="" d="M45,41H3V9h10.586l4-4h12.828l4,4H45V41z M5,39h38V11h-9.414l-4-4H18.414l-4,4H5   V39z M24,33c-4.411,0-8-3.589-8-8s3.589-8,8-8s8,3.589,8,8S28.411,33,24,33z M24,19c-3.309,0-6,2.691-6,6s2.691,6,6,6s6-2.691,6-6   S27.309,19,24,19z" display="inline"/></g><g style="" display="none"><path style="" d="M34,39H12c-4.962,0-9-4.037-9-9c0-3.878,2.473-7.281,6.097-8.512   C9.856,14.431,15.832,9,23,9c5.496,0,10.422,3.172,12.709,8.132C41.046,17.958,45,22.531,45,28C45,34.065,40.065,39,34,39z M23,11   c-6.347,0-11.602,4.968-11.964,11.31l-0.042,0.732l-0.711,0.18C7.172,24.008,5,26.795,5,30c0,3.859,3.14,7,7,7h22   c4.963,0,9-4.037,9-9c0-4.638-3.475-8.487-8.081-8.954l-0.596-0.061l-0.229-0.553C32.233,13.917,27.879,11,23,11z" display="inline"/></g><g style="" display="none"><path style="" d="M12.997,46.171v-8.374L17,33.6v-5.981l-12,6v-8.087l12-10V9.586l7-7l7,7v5.946   l12,10v8.087l-12-6v5.968l4,4v8.181l-10.985-6.592L12.997,46.171z M14.997,38.598v3.935l8.989-5.707L33,42.233v-3.819l-4-4V24.382   l12,6v-3.913l-12-10v-6.054l-5-5l-5,5v6.054l-12,10v3.913l12-6V34.4L14.997,38.598z" display="inline"/></g><g style="" display="none"><path style="" d="M41.456,41.456l-13.507-3.859C25.731,38.528,23.396,39,21,39   c-9.925,0-18-8.075-18-18c0-9.925,8.075-18,18-18c9.925,0,18,8.075,18,18c0,2.396-0.472,4.731-1.403,6.949L41.456,41.456z    M27.807,35.476l10.737,3.068l-3.068-10.737l0.147-0.331C36.537,25.415,37,23.236,37,21c0-8.822-7.178-16-16-16S5,12.178,5,21   s7.178,16,16,16c2.236,0,4.415-0.463,6.476-1.377L27.807,35.476z" display="inline"/></g><g style="" display="none"><path style="" d="M14.591,46.041L16.895,23H10.78l4.4-22h18.208l-4,12h6.444L14.591,46.041z    M13.22,21h5.885l-1.696,16.959L32.168,15h-5.556l4-12H16.82L13.22,21z" display="inline"/></g><g style="" display="none"><polygon style="" points="44,23 44,25 25,25 25,44 23,44 23,25 4,25 4,23 23,23 23,4 25,4 25,23     " display="inline"/></g><g style="" display="none"><rect x="4" y="23" style="" width="40" height="2" display="inline"/></g><g style="" display="none"><path style="" d="M37.024,44.042L24,37.195l-13.024,6.848l2.487-14.503L2.926,19.269l14.562-2.116   L24,3.958l6.512,13.195l14.562,2.116L34.536,29.54L37.024,44.042z M7.224,20.665l8.388,8.175l-1.98,11.546L24,34.935l10.368,5.451   l-1.98-11.546l8.388-8.175l-11.592-1.684L24,8.477l-5.184,10.504L7.224,20.665z" display="inline"/></g><g style="" display="none"><path style="" d="M14,44H4V6h10V44z M6,42h6V8H6V42z M30,44H20V12h10V44z M22,42h6V14h-6V42z M46,44   H36V18h10V44z M38,42h6V20h-6V42z" display="inline"/></g><g style="" display="none"><polygon style="" points="39.28,32.615 26.36,43.385 25.08,41.845 34.96,33.615 8.72,33.615    8.72,4.615 10.72,4.615 10.72,31.615 34.96,31.615 25.08,23.385 26.36,21.845  " display="inline"/></g><g style="" display="none"><path style="" d="M20,37H7V3h26v21h-2V5H9v30h11V37z M41,36c0-4.963-4.037-9-9-9   c-4.962,0-9,4.037-9,9s4.038,9,9,9C36.963,45,41,40.963,41,36z M39,36c0,3.859-3.141,7-7,7c-3.86,0-7-3.141-7-7s3.14-7,7-7   C35.859,29,39,32.141,39,36z" display="inline"/></g><g style="" display="none"><path style="" d="M20.645,37.645h-13v-34h26v21h-2v-19h-22v30h11V37.645z M40.355,28.355l-1.42-1.42   l-7.29,7.29l-7.29-7.29l-1.42,1.42l7.29,7.29l-7.29,7.29l1.42,1.42l7.29-7.29l7.29,7.29l1.42-1.42l-7.29-7.29L40.355,28.355z" display="inline"/></g><g style="" display="none"><path style="" d="M18.675,39.319h-13v-34h26v21h-2v-19h-22v30h11V39.319z M42.325,30.078   l-1.301-1.518L27.727,39.957l-5.345-5.345l-1.414,1.414l6.655,6.655L42.325,30.078z" display="inline"/></g><g><path d="M37,43.567L24,32.734L11,43.567V4.433h26V43.567z M24,30.131l11,9.167V6.433H13v32.865L24,30.131z"/></g><g style="" display="none"><path style="" d="M33,45H3V3h30v9h-2V5H5v38h26v-7h2V45z M36.71,15.29l-1.42,1.42l6.3,6.29H18v2   h23.59l-6.3,6.29l1.42,1.42l8.7-8.71L36.71,15.29z" display="inline"/></g><g style="" display="none"><path style="" d="M39,43H9V3h17.414L39,15.585V43z M11,41h26V16.414L25.586,5H11V41z M30,21H18v2h12   V21z M30,29H18v2h12V29z" display="inline"/></g><g style="" display="none"><path style="" d="M40.414,36H7.586L3,31.414V10.586L7.586,6h32.828L45,10.585v20.829L40.414,36z    M8.414,34h31.172L43,30.586V11.414L39.586,8H8.414L5,11.414v19.172L8.414,34z M32,40H16v2h16V40z" display="inline"/></g><g style="" display="none"><polygon style="" points="24,42.705 40.71,26.005 39.29,24.585 25,38.885 25,5.295 23,5.295    23,38.885 8.71,24.585 7.29,26.005  " display="inline"/></g><g style="" display="none"><path style="" d="M24,2C14.63,2,7,9.63,7,19c0,6.73,3.9,12.73,10,15.49V42h2v4h10v-4h2v-7.51   c6.1-2.76,10-8.76,10-15.49C41,9.63,33.37,2,24,2z M27,44h-6v-2h6V44z M29,40H19v-2h10V40z M29.62,32.9L29,33.15V36H19v-2.85   l-0.62-0.25C12.68,30.59,9,25.14,9,19c0-8.27,6.73-15,15-15s15,6.73,15,15C39,25.14,35.32,30.59,29.62,32.9z" display="inline"/></g><g style="" display="none"><path style="" d="M11,7.08V4H9v3.08C5.61,7.56,3,10.48,3,14c0,3.52,2.61,6.44,6,6.92V44h2V20.92   c3.39-0.48,6-3.4,6-6.92C17,10.48,14.39,7.56,11,7.08z M10,19c-2.76,0-5-2.24-5-5s2.24-5,5-5s5,2.24,5,5S12.76,19,10,19z M25,27.08   V4h-2v23.08c-3.39,0.48-6,3.4-6,6.92c0,3.52,2.61,6.44,6,6.92V44h2v-3.08c3.39-0.48,6-3.4,6-6.92C31,30.48,28.39,27.56,25,27.08z    M24,39c-2.76,0-5-2.24-5-5s2.24-5,5-5s5,2.24,5,5S26.76,39,24,39z M39,7.08V4h-2v3.08c-3.39,0.48-6,3.4-6,6.92   c0,3.52,2.61,6.44,6,6.92V44h2V20.92c3.39-0.48,6-3.4,6-6.92C45,10.48,42.39,7.56,39,7.08z M38,19c-2.76,0-5-2.24-5-5s2.24-5,5-5   s5,2.24,5,5S40.76,19,38,19z" display="inline"/></g><g style="" display="none"><path style="" d="M29,43.618l-10-5V22.343L3.956,3h40.089L29,22.343V43.618z M21,37.382l6,3V21.657   L39.955,5H8.044L21,21.657V37.382z" display="inline"/></g><g style="" display="none"><path style="" d="M24,39c-9.541,0-17.951-5.745-21.425-14.636L2.433,24l0.142-0.364   C6.049,14.745,14.459,9,24,9s17.951,5.745,21.425,14.636L45.566,24l-0.142,0.364C41.951,33.255,33.541,39,24,39z M4.584,24   C7.841,31.911,15.419,37,24,37c8.581,0,16.159-5.089,19.416-13C40.159,16.089,32.581,11,24,11C15.419,11,7.841,16.089,4.584,24z    M24,31c-3.86,0-7-3.141-7-7c0-3.86,3.14-7,7-7c3.859,0,7,3.14,7,7C31,27.859,27.859,31,24,31z M24,19c-2.757,0-5,2.243-5,5   s2.243,5,5,5s5-2.243,5-5S26.757,19,24,19z" display="inline"/></g><g style="" display="none"><polygon style="" points="15.854,39.387 5.232,26.641 6.768,25.359 16.146,36.613 43.382,15.214    44.618,16.786  " display="inline"/></g><g style="" display="none"><polygon style="" points="25.42,24 42.71,41.29 41.29,42.71 24,25.42 6.71,42.71 5.29,41.29    22.58,24 5.29,6.71 6.71,5.29 24,22.58 41.29,5.29 42.71,6.71  " display="inline"/></g><g style="" display="none"><path style="" d="M45,45H3V3h42V45z M5,43h38V5H5V43z M37.707,15.707l-1.414-1.414L19,31.586   l-7.293-7.293l-1.414,1.414L19,34.414L37.707,15.707z" display="inline"/></g><g style="" display="none"><path style="" d="M45,45H3V3h42V45z M5,43h38V5H5V43z" display="inline"/></g><g style="" display="none"><path style="" d="M45.425,23.635c-1.79-4.58-4.89-8.32-8.78-10.87l6.06-6.06l-1.41-1.41l-6.42,6.42   c-3.26-1.75-6.98-2.71-10.88-2.71c-9.54,0-17.95,5.74-21.42,14.63l-0.14,0.37l0.14,0.36c1.79,4.58,4.88,8.32,8.77,10.88l-6.05,6.05   l1.41,1.41l6.41-6.41c3.26,1.75,6.98,2.71,10.88,2.71c9.54,0,17.95-5.75,21.43-14.64l0.14-0.36L45.425,23.635z M4.585,24.005   c3.25-7.91,10.83-13,19.41-13c3.35,0,6.54,0.77,9.39,2.2l-5.2,5.2c-1.17-0.88-2.62-1.4-4.19-1.4c-3.86,0-7,3.14-7,7   c0,1.57,0.52,3.02,1.4,4.19l-5.6,5.6C9.185,31.525,6.285,28.155,4.585,24.005z M28.995,24.005c0,2.75-2.24,5-5,5   c-1.01,0-1.96-0.3-2.75-0.84l6.91-6.91C28.695,22.035,28.995,22.985,28.995,24.005z M18.995,24.005c0-2.76,2.25-5,5-5   c1.02,0,1.97,0.3,2.75,0.84l-6.91,6.91C19.295,25.965,18.995,25.015,18.995,24.005z M23.995,37.005c-3.35,0-6.55-0.77-9.39-2.2   l5.2-5.2c1.17,0.88,2.62,1.4,4.19,1.4c3.86,0,7-3.14,7-7c0-1.57-0.52-3.02-1.4-4.19l5.6-5.6c3.61,2.26,6.51,5.64,8.22,9.79   C40.155,31.915,32.575,37.005,23.995,37.005z" display="inline"/></g><g style="" display="none"><path style="" d="M36,27c-3.16,0-5.94,1.64-7.55,4.11l-8.01-4C20.81,26.12,21,25.06,21,24   c0-1.09-0.2-2.14-0.56-3.11l8.01-4C30.06,19.36,32.84,21,36,21c4.96,0,9-4.04,9-9c0-4.96-4.04-9-9-9s-9,4.04-9,9   c0,1.09,0.2,2.14,0.56,3.11l-8.01,4C17.94,16.64,15.16,15,12,15c-4.96,0-9,4.04-9,9c0,4.96,4.04,9,9,9c3.04,0,5.9-1.56,7.55-4.1   l8.01,3.99C27.2,33.86,27,34.91,27,36c0,4.96,4.04,9,9,9s9-4.04,9-9C45,31.04,40.96,27,36,27z M36,5c3.86,0,7,3.14,7,7s-3.14,7-7,7   s-7-3.14-7-7S32.14,5,36,5z M18.06,27.5C16.81,29.66,14.49,31,12,31c-3.86,0-7-3.14-7-7s3.14-7,7-7s7,3.14,7,7   C19,25.23,18.68,26.44,18.06,27.5z M36,43c-3.86,0-7-3.14-7-7s3.14-7,7-7s7,3.14,7,7S39.86,43,36,43z" display="inline"/></g><g style="" display="none"><path style="" d="M24,43.601L15.52,33H3V5h42v28H32.48L24,43.601z M5,31h11.48L24,40.399L31.52,31   H43V7H5V31z" display="inline"/></g><g style="" display="none"><g style="" display="inline"><path d="M30,7V2h-2v5H14V2h-2v5H2v30h38V7H30z M38,35H4V9h8v5h2V9h14v5h2V9h8V35z"/></g></g><g style="" display="none"><path style="" d="M3,8v32h42V8H3z M5,10h38v6H5V10z M43,38H5V22h38V38z" display="inline"/></g><g style="" display="none"><path style="" d="M3.5,7.5v28h25v-2h-23v-14h32v5h2v-17H3.5z M5.5,13.5v-4h32v4H5.5z M44.5,33.5v2   h-5v5h-2v-5h-5v-2h5v-5h2v5H44.5z" display="inline"/></g><g style="" display="none"><path style="" d="M24,31c-3.86,0-7-3.141-7-7c0-3.86,3.14-7,7-7c3.859,0,7,3.14,7,7   C31,27.859,27.859,31,24,31z M24,19c-2.757,0-5,2.243-5,5s2.243,5,5,5s5-2.243,5-5S26.757,19,24,19z M40.97,23   c-0.23-3.93-1.81-7.52-4.28-10.28l2.16-2.16l-1.41-1.41l-2.16,2.16C32.52,8.84,28.93,7.26,25,7.03V4h-2v3.03   c-3.93,0.23-7.52,1.81-10.28,4.28l-2.16-2.16l-1.41,1.41l2.16,2.16C8.84,15.48,7.26,19.07,7.03,23H4v2h3.03   c0.23,3.93,1.81,7.52,4.28,10.28l-2.16,2.16l1.41,1.41l2.16-2.16c2.76,2.47,6.35,4.05,10.28,4.28V44h2v-3.03   c3.93-0.23,7.52-1.81,10.28-4.28l2.16,2.16l1.41-1.41l-2.16-2.16c2.47-2.76,4.05-6.35,4.28-10.28H44v-2H40.97z M24,39   c-8.27,0-15-6.73-15-15c0-8.27,6.73-15,15-15s15,6.73,15,15C39,32.27,32.27,39,24,39z" display="inline"/></g><g style="" display="none"><path style="" d="M2,3v2h5.03C7.55,13.91,14.97,21,24,21s16.45-7.09,16.97-16H46V3H2z M24,19   C16.07,19,9.55,12.81,9.04,5h29.92C38.45,12.81,31.93,19,24,19z M40.97,43C40.45,34.09,33.03,27,24,27S7.55,34.09,7.03,43H2v2h44   v-2H40.97z M9.04,43C9.55,35.19,16.07,29,24,29s14.45,6.19,14.96,14H9.04z" display="inline"/></g><g style="" display="none"><path style="" d="M24,2.65L3,21.55V45h42V21.55L24,2.65z M19,43V29h10v14H19z M43,43H31V27H17v16H5   V22.45l19-17.1l19,17.1V43z" display="inline"/><rect x="-4" y="22" style="" width="0" height="0" display="inline" fill="none" stroke="#000000" stroke-width="2" stroke-miterlimit="10"/></g><g style="" display="none"><path style="" d="M19,5.15v25.21C17.35,28.31,14.83,27,12,27c-4.96,0-9,4.04-9,9c0,4.96,4.04,9,9,9   s9-4.04,9-9V14.85l22-3.67v15.18C41.35,24.31,38.83,23,36,23c-4.96,0-9,4.04-9,9c0,4.96,4.04,9,9,9s9-4.04,9-9V0.82L19,5.15z    M12,43c-3.86,0-7-3.14-7-7s3.14-7,7-7s7,3.14,7,7S15.86,43,12,43z M36,39c-3.86,0-7-3.14-7-7s3.14-7,7-7s7,3.14,7,7   S39.86,39,36,39z M21,12.82V6.85l22-3.67v5.97L21,12.82z" display="inline"/></g><g style="" display="none"><path style="" d="M24.991,46L11.556,32.565c-7.408-7.408-7.408-19.462,0-26.87   s19.462-7.408,26.87,0s7.408,19.462,0,26.87L24.991,46z M37.012,7.109c-6.628-6.628-17.413-6.628-24.042,0s-6.628,17.413,0,24.042   l12.021,12.021l12.021-12.021C43.64,24.522,43.64,13.738,37.012,7.109z M20.041,24.08c-2.729-2.729-2.729-7.171,0-9.899   c2.729-2.729,7.17-2.729,9.899,0c2.729,2.729,2.729,7.17,0,9.899C27.212,26.809,22.77,26.809,20.041,24.08z M28.527,15.594   c-1.949-1.949-5.122-1.949-7.071,0s-1.949,5.122,0,7.071s5.122,1.949,7.071,0S30.476,17.544,28.527,15.594z" display="inline"/></g><g style="" display="none"><path style="" d="M37,19v-5c0-7.17-5.83-13-13-13S11,6.83,11,14v5H5v28h38V19H37z M13,14   c0-6.07,4.93-11,11-11s11,4.93,11,11v5H13V14z M41,45H7V21h34V45z M27,41h-6v-7.021c-1.246-0.939-2-2.416-2-3.979   c0-2.757,2.243-5,5-5s5,2.243,5,5c0,1.563-0.754,3.04-2,3.979V41z M23,39h2v-6.13l0.497-0.289C26.438,32.033,27,31.068,27,30   c0-1.654-1.346-3-3-3s-3,1.346-3,3c0,1.068,0.562,2.033,1.503,2.581L23,32.87V39z" display="inline"/></g><g style="" display="none"><path style="" d="M24,33c-4.962,0-9-4.037-9-9V12c0-4.962,4.038-9,9-9c4.963,0,9,4.038,9,9v12   C33,28.963,28.963,33,24,33z M24,5c-3.86,0-7,3.14-7,7v12c0,3.859,3.14,7,7,7c3.859,0,7-3.141,7-7V12C31,8.14,27.859,5,24,5z    M39,24h-2c0,7.17-5.83,13-13,13s-13-5.83-13-13H9c0,7.93,6.19,14.45,14,14.96V43h-5v2h12v-2h-5v-4.04C32.81,38.45,39,31.93,39,24z   " display="inline"/></g><g style="" display="none"><path style="" d="M37,9V5H11v4H6v2h3.06l2,32h25.88l2-32H42V9H37z M13,7h22v2H13V7z M35.06,41   H12.94l-1.88-30h25.88L35.06,41z M22,32h-2V20h2V32z M28,32h-2V20h2V32z" display="inline"/></g><g style="" display="none"><path style="" d="M8,14c-3.309,0-6-2.691-6-6s2.691-6,6-6s6,2.691,6,6S11.309,14,8,14z M8,4   C5.794,4,4,5.794,4,8s1.794,4,4,4s4-1.794,4-4S10.206,4,8,4z M24,14c-3.309,0-6-2.691-6-6s2.691-6,6-6s6,2.691,6,6S27.309,14,24,14   z M24,4c-2.206,0-4,1.794-4,4s1.794,4,4,4c2.206,0,4-1.794,4-4S26.206,4,24,4z M40,14c-3.309,0-6-2.691-6-6s2.691-6,6-6   s6,2.691,6,6S43.309,14,40,14z M40,4c-2.206,0-4,1.794-4,4s1.794,4,4,4s4-1.794,4-4S42.206,4,40,4z M8,30c-3.309,0-6-2.691-6-6   s2.691-6,6-6s6,2.691,6,6S11.309,30,8,30z M8,20c-2.206,0-4,1.794-4,4c0,2.206,1.794,4,4,4s4-1.794,4-4C12,21.794,10.206,20,8,20z    M24,30c-3.309,0-6-2.691-6-6s2.691-6,6-6s6,2.691,6,6S27.309,30,24,30z M24,20c-2.206,0-4,1.794-4,4c0,2.206,1.794,4,4,4   c2.206,0,4-1.794,4-4C28,21.794,26.206,20,24,20z M40,30c-3.309,0-6-2.691-6-6s2.691-6,6-6s6,2.691,6,6S43.309,30,40,30z M40,20   c-2.206,0-4,1.794-4,4c0,2.206,1.794,4,4,4s4-1.794,4-4C44,21.794,42.206,20,40,20z M8,46c-3.309,0-6-2.691-6-6s2.691-6,6-6   s6,2.691,6,6S11.309,46,8,46z M8,36c-2.206,0-4,1.794-4,4s1.794,4,4,4s4-1.794,4-4S10.206,36,8,36z M24,46c-3.309,0-6-2.691-6-6   s2.691-6,6-6s6,2.691,6,6S27.309,46,24,46z M24,36c-2.206,0-4,1.794-4,4s1.794,4,4,4c2.206,0,4-1.794,4-4S26.206,36,24,36z M40,46   c-3.309,0-6-2.691-6-6s2.691-6,6-6s6,2.691,6,6S43.309,46,40,46z M40,36c-2.206,0-4,1.794-4,4s1.794,4,4,4s4-1.794,4-4   S42.206,36,40,36z" display="inline"/></g><g style="" display="none"><path style="" d="M38.654,21.884l2.517,2.517l5.657-5.657L28.444,0.36l-5.657,5.657l2.517,2.517   l-14.722,6.689L6,41.188l25.965-4.582L38.654,21.884z M25.615,6.016l2.828-2.828L44,18.744l-2.828,2.828L25.615,6.016z    M19.251,26.523c0.389-0.389,1.025-0.389,1.414,0c0.389,0.389,0.389,1.025,0,1.414c-0.389,0.389-1.025,0.389-1.414,0   C18.862,27.548,18.862,26.911,19.251,26.523z M18.671,29.931c1.11,0.53,2.489,0.339,3.408-0.58c1.167-1.167,1.167-3.076,0-4.243   c-1.167-1.167-3.076-1.167-4.243,0c-0.919,0.919-1.11,2.298-0.58,3.408l-8.492,8.492l3.599-20.4L26.81,10.04l10.338,10.338   l-6.569,14.446l-20.4,3.599L18.671,29.931z" display="inline"/></g><g style="" display="none"><path style="" d="M24,45c-5.075,0-9.846-1.977-13.435-5.565c-7.408-7.407-7.408-19.461,0-26.87   l1.414,1.414c-6.628,6.628-6.628,17.414,0,24.042C15.19,41.231,19.459,43,24,43c4.541,0,8.81-1.769,12.021-4.979S41,30.541,41,26   s-1.769-8.81-4.979-12.021l1.414-1.414C41.023,16.154,43,20.925,43,26s-1.977,9.846-5.565,13.435S29.075,45,24,45z M25,4h-2v24h2V4   z" display="inline"/></g><g style="" display="none"><path style="" d="M37,37H11V11h26V37z M13,35h22V13H13V35z M44.707,4.707l-1.414-1.414l-6,6   l1.414,1.414L44.707,4.707z M10.707,9.293l-6-6L3.293,4.707l6,6L10.707,9.293z M10.707,38.707l-1.414-1.414l-6,6l1.414,1.414   L10.707,38.707z M44.707,43.293l-6-6l-1.414,1.414l6,6L44.707,43.293z" display="inline"/></g><g style="" display="none"><path style="" d="M24,37c-7.168,0-13-5.832-13-13c0-7.168,5.832-13,13-13c7.168,0,13,5.832,13,13   C37,31.168,31.168,37,24,37z M24,13c-6.065,0-11,4.935-11,11s4.935,11,11,11s11-4.935,11-11S30.065,13,24,13z M25,2h-2v6h2V2z    M40.264,9.151L38.85,7.737l-4.243,4.243l1.414,1.414L40.264,9.151z M46,23h-6v2h6V23z M40.264,38.85l-4.243-4.243l-1.414,1.414   l4.243,4.243L40.264,38.85z M25,40h-2v6h2V40z M13.394,36.021l-1.414-1.414L7.737,38.85l1.414,1.414L13.394,36.021z M8,23H2v2h6V23   z M13.394,11.979L9.151,7.737L7.737,9.151l4.243,4.243L13.394,11.979z" display="inline"/></g><g style="" display="none"><path style="" d="M22.056,44.092L8.893,7.893l36.199,13.163L32.32,24.249l9.357,9.357l-7.071,7.071   l-9.357-9.357L22.056,44.092z M24.165,27.408L34.606,37.85l4.243-4.243L28.408,23.165l9.855-2.463l-26.026-9.464l9.464,26.026   L24.165,27.408z" display="inline"/></g><g style="" display="none"><path style="" d="M39,45H3V9h21v2H5v32h32V24h2V45z M47,10c0-4.962-4.037-9-9-9s-9,4.038-9,9   s4.037,9,9,9S47,14.962,47,10z M45,10c0,3.86-3.141,7-7,7s-7-3.14-7-7s3.141-7,7-7S45,6.14,45,10z" display="inline"/></g><g style="" display="none"><path style="" d="M6.747,45.963l2.334-18.672L17.308,24l-8.227-3.291L6.747,2.038L41.887,24   L6.747,45.963z M10.919,28.709L9.253,42.037L38.113,24L9.253,5.962l1.666,13.328L22.692,24L10.919,28.709z" display="inline"/></g><g style="" display="none"><path style="" d="M37.202,43H10.798c-1.79,0-3.401-0.921-4.309-2.464   c-0.908-1.543-0.931-3.399-0.062-4.964l13.202-23.764c0.895-1.61,2.528-2.571,4.37-2.572c1.842,0,3.477,0.961,4.372,2.572   l13.201,23.764c0.87,1.564,0.847,3.42-0.061,4.963C40.604,42.079,38.992,43,37.202,43z M24,11.236   c-1.105,0-2.086,0.577-2.623,1.543L8.175,36.543c-0.521,0.939-0.508,2.053,0.037,2.979S9.724,41,10.798,41h26.404   c1.074,0,2.041-0.553,2.585-1.479c0.545-0.926,0.559-2.039,0.037-2.979L26.623,12.78C26.086,11.813,25.105,11.236,24,11.236z    M25,24h-2v14h2V24z M25,18h-2v4h2V18z" display="inline"/></g><g style="" display="none"><path style="" d="M2.853,44.964l0.168-5.816C3.469,23.698,15.673,11.525,31,11.017v-4.74L48.016,16   L31,25.724v-4.706C19.509,21.422,9.125,28.762,4.954,39.538L2.853,44.964z M32,13C19.276,13,8.689,21.62,5.793,33.463   C11.407,24.627,21.319,19,32,19h1v3.277L43.984,16L33,9.723V13H32z" display="inline"/></g><text x="0" y="63" fill="#000000" font-size="5px" font-weight="bold" font-family="'Helvetica Neue', Helvetica, Arial-Unicode, Arial, Sans-serif">Created by Arash Bal</text><text x="0" y="68" fill="#000000" font-size="5px" font-weight="bold" font-family="'Helvetica Neue', Helvetica, Arial-Unicode, Arial, Sans-serif">from the Noun Project</text></svg>